<?xml version="1.0" encoding="utf-8"?>
<!-- Generator: Adobe Illustrator 20.1.0, SVG Export Plug-In . SVG Version: 6.00 Build 0)  -->
<svg version="1.1" id="Camada_1" xmlns="http://www.w3.org/2000/svg" xmlns:xlink="http://www.w3.org/1999/xlink" x="0px" y="0px"
	 viewBox="0 0 989.2 400" style="enable-background:new 0 0 989.2 400;" xml:space="preserve">
<style type="text/css">
	.st0{fill:#FFFFFF;}
</style>
<g>
	<path class="st0" d="M346.4,16.1c-3.7,0-7,2.9-7,6.7s3.2,7,7,7c3.7,0,6.7-3.2,6.7-7S350.2,16.1,346.4,16.1z"/>
	<path class="st0" d="M366.1,16.1c-3.7,0-6.7,2.9-6.7,6.7s2.9,7,6.7,7c3.7,0,6.7-3.2,6.7-7S369.9,16.1,366.1,16.1z"/>
	<path class="st0" d="M385.8,16.1c-3.7,0-6.7,2.9-6.7,6.7s2.9,7,6.7,7c3.7,0,6.7-3.2,6.7-7S389.6,16.1,385.8,16.1z"/>
	<path class="st0" d="M405.6,16.1c-3.7,0-6.7,2.9-6.7,6.7s2.9,7,6.7,7s6.7-3.2,6.7-7S409.3,16.1,405.6,16.1z"/>
	<path class="st0" d="M425.3,16.1c-3.7,0-6.7,2.9-6.7,6.7s2.9,7,6.7,7s6.7-3.2,6.7-7S429,16.1,425.3,16.1z"/>
	<path class="st0" d="M445,16.1c-3.7,0-6.7,2.9-6.7,6.7s2.9,7,6.7,7s6.7-3.2,6.7-7S448.7,16.1,445,16.1z"/>
	<path class="st0" d="M661.9,16.1c-3.7,0-6.7,2.9-6.7,6.7s2.9,7,6.7,7s7-3.2,7-7S665.6,16.1,661.9,16.1z"/>
	<path class="st0" d="M681.9,16.1c-3.7,0-7,2.9-7,6.7s3.2,7,7,7c3.7,0,6.7-3.2,6.7-7S685.6,16.1,681.9,16.1z"/>
	<path class="st0" d="M701.6,16.1c-3.7,0-7,2.9-7,6.7s3.2,7,7,7c3.7,0,6.7-3.2,6.7-7S705.4,16.1,701.6,16.1z"/>
	<path class="st0" d="M721.3,16.1c-3.7,0-7,2.9-7,6.7s3.2,7,7,7s6.7-3.2,6.7-7S725.1,16.1,721.3,16.1z"/>
	<path class="st0" d="M741,16.1c-3.7,0-7,2.9-7,6.7s3.2,7,7,7c3.7,0,6.7-3.2,6.7-7S744.8,16.1,741,16.1z"/>
	<path class="st0" d="M760.8,16.1c-3.7,0-7,2.9-7,6.7s3.2,7,7,7c3.7,0,6.7-3.2,6.7-7S764.5,16.1,760.8,16.1z"/>
	<path class="st0" d="M169,35.8c-3.7,0-7,2.9-7,6.7s3.2,6.7,7,6.7c3.7,0,6.7-2.9,6.7-6.7S172.7,35.8,169,35.8z"/>
	<path class="st0" d="M188.7,35.8c-3.7,0-7,2.9-7,6.7s3.2,6.7,7,6.7c3.7,0,6.7-2.9,6.7-6.7S192.4,35.8,188.7,35.8z"/>
	<path class="st0" d="M208.4,35.8c-3.7,0-7,2.9-7,6.7s3.2,6.7,7,6.7c3.7,0,6.7-2.9,6.7-6.7S212.1,35.8,208.4,35.8z"/>
	<path class="st0" d="M228.1,35.8c-3.7,0-7,2.9-7,6.7s3.2,6.7,7,6.7c3.7,0,6.7-2.9,6.7-6.7S231.8,35.8,228.1,35.8z"/>
	<path class="st0" d="M247.8,35.8c-3.7,0-7,2.9-7,6.7s3.2,6.7,7,6.7c3.7,0,6.7-2.9,6.7-6.7S251.6,35.8,247.8,35.8z"/>
	<path class="st0" d="M267.5,35.8c-3.7,0-7,2.9-7,6.7s3.2,6.7,7,6.7c3.7,0,6.7-2.9,6.7-6.7S271.3,35.8,267.5,35.8z"/>
	<path class="st0" d="M287.3,35.8c-3.7,0-7,2.9-7,6.7s3.2,6.7,7,6.7s6.7-2.9,6.7-6.7S291,35.8,287.3,35.8z"/>
	<path class="st0" d="M307,35.8c-3.7,0-7,2.9-7,6.7s3.2,6.7,7,6.7s6.7-2.9,6.7-6.7S310.7,35.8,307,35.8z"/>
	<path class="st0" d="M326.7,35.8c-3.7,0-7,2.9-7,6.7s3.2,6.7,7,6.7s6.7-2.9,6.7-6.7S330.4,35.8,326.7,35.8z"/>
	<path class="st0" d="M346.4,35.8c-3.7,0-7,2.9-7,6.7s3.2,6.7,7,6.7c3.7,0,6.7-2.9,6.7-6.7S350.2,35.8,346.4,35.8z"/>
	<path class="st0" d="M366.1,35.8c-3.7,0-6.7,2.9-6.7,6.7s2.9,6.7,6.7,6.7c3.7,0,6.7-2.9,6.7-6.7S369.9,35.8,366.1,35.8z"/>
	<path class="st0" d="M385.8,35.8c-3.7,0-6.7,2.9-6.7,6.7s2.9,6.7,6.7,6.7c3.7,0,6.7-2.9,6.7-6.7S389.6,35.8,385.8,35.8z"/>
	<path class="st0" d="M405.6,35.8c-3.7,0-6.7,2.9-6.7,6.7s2.9,6.7,6.7,6.7s6.7-2.9,6.7-6.7S409.3,35.8,405.6,35.8z"/>
	<path class="st0" d="M425.3,35.8c-3.7,0-6.7,2.9-6.7,6.7s2.9,6.7,6.7,6.7s6.7-2.9,6.7-6.7S429,35.8,425.3,35.8z"/>
	<path class="st0" d="M523.9,35.8c-3.7,0-6.7,2.9-6.7,6.7s2.9,6.7,6.7,6.7s7-2.9,7-6.7S527.6,35.8,523.9,35.8z"/>
	<path class="st0" d="M543.6,35.8c-3.7,0-6.7,2.9-6.7,6.7s2.9,6.7,6.7,6.7c3.7,0,7-2.9,7-6.7S547.3,35.8,543.6,35.8z"/>
	<path class="st0" d="M583,35.8c-3.7,0-6.7,2.9-6.7,6.7s2.9,6.7,6.7,6.7c3.7,0,7-2.9,7-6.7S586.8,35.8,583,35.8z"/>
	<path class="st0" d="M602.7,35.8c-3.7,0-6.7,2.9-6.7,6.7s2.9,6.7,6.7,6.7c3.7,0,7-2.9,7-6.7S606.5,35.8,602.7,35.8z"/>
	<path class="st0" d="M622.5,35.8c-3.7,0-6.7,2.9-6.7,6.7s2.9,6.7,6.7,6.7c3.7,0,7-2.9,7-6.7S626.2,35.8,622.5,35.8z"/>
	<path class="st0" d="M642.2,35.8c-3.7,0-6.7,2.9-6.7,6.7s2.9,6.7,6.7,6.7c3.7,0,7-2.9,7-6.7S645.9,35.8,642.2,35.8z"/>
	<path class="st0" d="M661.9,35.8c-3.7,0-6.7,2.9-6.7,6.7s2.9,6.7,6.7,6.7s7-2.9,7-6.7S665.6,35.8,661.9,35.8z"/>
	<path class="st0" d="M681.9,35.8c-3.7,0-7,2.9-7,6.7s3.2,6.7,7,6.7c3.7,0,6.7-2.9,6.7-6.7S685.6,35.8,681.9,35.8z"/>
	<path class="st0" d="M701.6,35.8c-3.7,0-7,2.9-7,6.7s3.2,6.7,7,6.7c3.7,0,6.7-2.9,6.7-6.7S705.4,35.8,701.6,35.8z"/>
	<path class="st0" d="M721.3,35.8c-3.7,0-7,2.9-7,6.7s3.2,6.7,7,6.7s6.7-2.9,6.7-6.7S725.1,35.8,721.3,35.8z"/>
	<path class="st0" d="M741,35.8c-3.7,0-7,2.9-7,6.7s3.2,6.7,7,6.7c3.7,0,6.7-2.9,6.7-6.7S744.8,35.8,741,35.8z"/>
	<path class="st0" d="M760.8,35.8c-3.7,0-7,2.9-7,6.7s3.2,6.7,7,6.7c3.7,0,6.7-2.9,6.7-6.7S764.5,35.8,760.8,35.8z"/>
	<path class="st0" d="M780.5,35.8c-3.7,0-7,2.9-7,6.7s3.2,6.7,7,6.7c3.7,0,6.7-2.9,6.7-6.7S784.2,35.8,780.5,35.8z"/>
	<path class="st0" d="M800.2,35.8c-3.7,0-7,2.9-7,6.7s3.2,6.7,7,6.7c3.7,0,6.7-2.9,6.7-6.7S803.9,35.8,800.2,35.8z"/>
	<path class="st0" d="M819.9,35.8c-3.7,0-7,2.9-7,6.7s3.2,6.7,7,6.7s6.7-2.9,6.7-6.7S823.7,35.8,819.9,35.8z"/>
	<path class="st0" d="M839.6,35.8c-3.7,0-7,2.9-7,6.7s3.2,6.7,7,6.7c3.7,0,6.7-2.9,6.7-6.7S843.4,35.8,839.6,35.8z"/>
	<path class="st0" d="M859.3,35.8c-3.7,0-7,2.9-7,6.7s3.2,6.7,7,6.7s6.7-2.9,6.7-6.7S863.1,35.8,859.3,35.8z"/>
	<path class="st0" d="M879.1,35.8c-3.7,0-7,2.9-7,6.7s3.2,6.7,7,6.7c3.7,0,6.7-2.9,6.7-6.7S882.8,35.8,879.1,35.8z"/>
	<path class="st0" d="M129.2,55.2c-3.7,0-6.7,3.2-6.7,7s2.9,6.7,6.7,6.7c3.7,0,7-2.9,7-6.7S133,55.2,129.2,55.2z"/>
	<path class="st0" d="M149.2,55.2c-3.7,0-7,3.2-7,7s3.2,6.7,7,6.7c3.7,0,6.7-2.9,6.7-6.7S153,55.2,149.2,55.2z"/>
	<path class="st0" d="M169,55.2c-3.7,0-7,3.2-7,7s3.2,6.7,7,6.7c3.7,0,6.7-2.9,6.7-6.7S172.7,55.2,169,55.2z"/>
	<path class="st0" d="M188.7,55.2c-3.7,0-7,3.2-7,7s3.2,6.7,7,6.7c3.7,0,6.7-2.9,6.7-6.7S192.4,55.2,188.7,55.2z"/>
	<path class="st0" d="M208.4,55.2c-3.7,0-7,3.2-7,7s3.2,6.7,7,6.7c3.7,0,6.7-2.9,6.7-6.7S212.1,55.2,208.4,55.2z"/>
	<path class="st0" d="M228.1,55.2c-3.7,0-7,3.2-7,7s3.2,6.7,7,6.7c3.7,0,6.7-2.9,6.7-6.7S231.8,55.2,228.1,55.2z"/>
	<path class="st0" d="M247.8,55.2c-3.7,0-7,3.2-7,7s3.2,6.7,7,6.7c3.7,0,6.7-2.9,6.7-6.7S251.6,55.2,247.8,55.2z"/>
	<path class="st0" d="M267.5,55.2c-3.7,0-7,3.2-7,7s3.2,6.7,7,6.7c3.7,0,6.7-2.9,6.7-6.7S271.3,55.2,267.5,55.2z"/>
	<path class="st0" d="M287.3,55.2c-3.7,0-7,3.2-7,7s3.2,6.7,7,6.7s6.7-2.9,6.7-6.7S291,55.2,287.3,55.2z"/>
	<path class="st0" d="M346.4,55.2c-3.7,0-7,3.2-7,7s3.2,6.7,7,6.7c3.7,0,6.7-2.9,6.7-6.7S350.2,55.2,346.4,55.2z"/>
	<path class="st0" d="M366.1,55.2c-3.7,0-6.7,3.2-6.7,7s2.9,6.7,6.7,6.7c3.7,0,6.7-2.9,6.7-6.7S369.9,55.2,366.1,55.2z"/>
	<path class="st0" d="M445,55.2c-0.9,0-1.8,0.2-2.6,0.6c-2.4,1-4.1,3.6-4.1,6.4c0,3.7,2.9,6.7,6.7,6.7s6.7-2.9,6.7-6.7
		S448.7,55.2,445,55.2z"/>
	<path class="st0" d="M504.1,55.2c-3.7,0-6.7,3.2-6.7,7s2.9,6.7,6.7,6.7c3.7,0,7-2.9,7-6.7S507.9,55.2,504.1,55.2z"/>
	<path class="st0" d="M523.9,55.2c-3.7,0-6.7,3.2-6.7,7s2.9,6.7,6.7,6.7s7-2.9,7-6.7S527.6,55.2,523.9,55.2z"/>
	<path class="st0" d="M543.6,55.2c-3.7,0-6.7,3.2-6.7,7s2.9,6.7,6.7,6.7c3.7,0,7-2.9,7-6.7S547.3,55.2,543.6,55.2z"/>
	<path class="st0" d="M563.3,55.2c-3.7,0-6.7,3.2-6.7,7s2.9,6.7,6.7,6.7s7-2.9,7-6.7S567,55.2,563.3,55.2z"/>
	<path class="st0" d="M583,55.2c-3.7,0-6.7,3.2-6.7,7s2.9,6.7,6.7,6.7c3.7,0,7-2.9,7-6.7S586.8,55.2,583,55.2z"/>
	<path class="st0" d="M602.7,55.2c-3.7,0-6.7,3.2-6.7,7s2.9,6.7,6.7,6.7c3.7,0,7-2.9,7-6.7S606.5,55.2,602.7,55.2z"/>
	<path class="st0" d="M622.5,55.2c-3.7,0-6.7,3.2-6.7,7s2.9,6.7,6.7,6.7c3.7,0,7-2.9,7-6.7S626.2,55.2,622.5,55.2z"/>
	<path class="st0" d="M642.2,55.2c-3.7,0-6.7,3.2-6.7,7s2.9,6.7,6.7,6.7c3.7,0,7-2.9,7-6.7S645.9,55.2,642.2,55.2z"/>
	<path class="st0" d="M661.9,55.2c-3.7,0-6.7,3.2-6.7,7s2.9,6.7,6.7,6.7s7-2.9,7-6.7S665.6,55.2,661.9,55.2z"/>
	<path class="st0" d="M681.9,55.2c-3.7,0-7,3.2-7,7s3.2,6.7,7,6.7c3.7,0,6.7-2.9,6.7-6.7S685.6,55.2,681.9,55.2z"/>
	<path class="st0" d="M701.6,55.2c-3.7,0-7,3.2-7,7s3.2,6.7,7,6.7c3.7,0,6.7-2.9,6.7-6.7S705.4,55.2,701.6,55.2z"/>
	<path class="st0" d="M721.3,55.2c-3.7,0-7,3.2-7,7s3.2,6.7,7,6.7s6.7-2.9,6.7-6.7S725.1,55.2,721.3,55.2z"/>
	<path class="st0" d="M741,55.2c-3.7,0-7,3.2-7,7s3.2,6.7,7,6.7c3.7,0,6.7-2.9,6.7-6.7S744.8,55.2,741,55.2z"/>
	<path class="st0" d="M760.8,55.2c-3.7,0-7,3.2-7,7s3.2,6.7,7,6.7c3.7,0,6.7-2.9,6.7-6.7S764.5,55.2,760.8,55.2z"/>
	<path class="st0" d="M780.5,55.2c-3.7,0-7,3.2-7,7s3.2,6.7,7,6.7c3.7,0,6.7-2.9,6.7-6.7S784.2,55.2,780.5,55.2z"/>
	<path class="st0" d="M800.2,55.2c-3.7,0-7,3.2-7,7s3.2,6.7,7,6.7c3.7,0,6.7-2.9,6.7-6.7S803.9,55.2,800.2,55.2z"/>
	<path class="st0" d="M819.9,55.2c-3.7,0-7,3.2-7,7s3.2,6.7,7,6.7s6.7-2.9,6.7-6.7S823.7,55.2,819.9,55.2z"/>
	<path class="st0" d="M839.6,55.2c-3.7,0-7,3.2-7,7s3.2,6.7,7,6.7c3.7,0,6.7-2.9,6.7-6.7S843.4,55.2,839.6,55.2z"/>
	<path class="st0" d="M859.3,55.2c-3.7,0-7,3.2-7,7s3.2,6.7,7,6.7s6.7-2.9,6.7-6.7S863.1,55.2,859.3,55.2z"/>
	<path class="st0" d="M109.5,74.9c-3.7,0-6.7,2.9-6.7,6.7s2.9,7,6.7,7c3.7,0,7-3.2,7-7S113.3,74.9,109.5,74.9z"/>
	<path class="st0" d="M188.7,74.9c-3.7,0-7,2.9-7,6.7s3.2,7,7,7c3.7,0,6.7-3.2,6.7-7S192.4,74.9,188.7,74.9z"/>
	<path class="st0" d="M208.4,74.9c-3.7,0-7,2.9-7,6.7s3.2,7,7,7c3.7,0,6.7-3.2,6.7-7S212.1,74.9,208.4,74.9z"/>
	<path class="st0" d="M228.1,74.9c-3.7,0-7,2.9-7,6.7s3.2,7,7,7c3.7,0,6.7-3.2,6.7-7S231.8,74.9,228.1,74.9z"/>
	<path class="st0" d="M247.8,74.9c-3.7,0-7,2.9-7,6.7s3.2,7,7,7c3.7,0,6.7-3.2,6.7-7S251.6,74.9,247.8,74.9z"/>
	<path class="st0" d="M267.5,74.9c-3.7,0-7,2.9-7,6.7s3.2,7,7,7c3.7,0,6.7-3.2,6.7-7S271.3,74.9,267.5,74.9z"/>
	<path class="st0" d="M307,74.9c-3.7,0-7,2.9-7,6.7s3.2,7,7,7s6.7-3.2,6.7-7S310.7,74.9,307,74.9z"/>
	<path class="st0" d="M326.7,74.9c-3.7,0-7,2.9-7,6.7s3.2,7,7,7s6.7-3.2,6.7-7S330.4,74.9,326.7,74.9z"/>
	<path class="st0" d="M464.7,74.9c-3.7,0-6.7,2.9-6.7,6.7s2.9,7,6.7,7c3.7,0,6.7-3.2,6.7-7S468.5,74.9,464.7,74.9z"/>
	<path class="st0" d="M504.1,74.9c-3.7,0-6.7,2.9-6.7,6.7s2.9,7,6.7,7c3.7,0,7-3.2,7-7S507.9,74.9,504.1,74.9z"/>
	<path class="st0" d="M523.9,74.9c-3.7,0-6.7,2.9-6.7,6.7s2.9,7,6.7,7s7-3.2,7-7S527.6,74.9,523.9,74.9z"/>
	<path class="st0" d="M543.6,74.9c-3.7,0-6.7,2.9-6.7,6.7s2.9,7,6.7,7c3.7,0,7-3.2,7-7S547.3,74.9,543.6,74.9z"/>
	<path class="st0" d="M563.3,74.9c-3.7,0-6.7,2.9-6.7,6.7s2.9,7,6.7,7s7-3.2,7-7S567,74.9,563.3,74.9z"/>
	<path class="st0" d="M583,74.9c-3.7,0-6.7,2.9-6.7,6.7s2.9,7,6.7,7c3.7,0,7-3.2,7-7S586.8,74.9,583,74.9z"/>
	<path class="st0" d="M602.7,74.9c-3.7,0-6.7,2.9-6.7,6.7s2.9,7,6.7,7c3.7,0,7-3.2,7-7S606.5,74.9,602.7,74.9z"/>
	<path class="st0" d="M622.5,74.9c-3.7,0-6.7,2.9-6.7,6.7s2.9,7,6.7,7c3.7,0,7-3.2,7-7S626.2,74.9,622.5,74.9z"/>
	<path class="st0" d="M642.2,74.9c-3.7,0-6.7,2.9-6.7,6.7s2.9,7,6.7,7c3.7,0,7-3.2,7-7S645.9,74.9,642.2,74.9z"/>
	<path class="st0" d="M661.9,74.9c-3.7,0-6.7,2.9-6.7,6.7s2.9,7,6.7,7s7-3.2,7-7S665.6,74.9,661.9,74.9z"/>
	<path class="st0" d="M681.9,74.9c-3.7,0-7,2.9-7,6.7s3.2,7,7,7c3.7,0,6.7-3.2,6.7-7S685.6,74.9,681.9,74.9z"/>
	<path class="st0" d="M701.6,74.9c-3.7,0-7,2.9-7,6.7s3.2,7,7,7c3.7,0,6.7-3.2,6.7-7S705.4,74.9,701.6,74.9z"/>
	<path class="st0" d="M721.3,74.9c-3.7,0-7,2.9-7,6.7s3.2,7,7,7s6.7-3.2,6.7-7S725.1,74.9,721.3,74.9z"/>
	<path class="st0" d="M741,74.9c-3.7,0-7,2.9-7,6.7s3.2,7,7,7c3.7,0,6.7-3.2,6.7-7S744.8,74.9,741,74.9z"/>
	<path class="st0" d="M760.8,74.9c-3.7,0-7,2.9-7,6.7s3.2,7,7,7c3.7,0,6.7-3.2,6.7-7S764.5,74.9,760.8,74.9z"/>
	<path class="st0" d="M780.5,74.9c-3.7,0-7,2.9-7,6.7s3.2,7,7,7c3.7,0,6.7-3.2,6.7-7S784.2,74.9,780.5,74.9z"/>
	<path class="st0" d="M800.2,74.9c-3.7,0-7,2.9-7,6.7s3.2,7,7,7c3.7,0,6.7-3.2,6.7-7S803.9,74.9,800.2,74.9z"/>
	<path class="st0" d="M188.7,94.4c-3.7,0-7,3.2-7,7s3.2,6.7,7,6.7c3.7,0,6.7-2.9,6.7-6.7S192.4,94.4,188.7,94.4z"/>
	<path class="st0" d="M208.4,94.4c-3.7,0-7,3.2-7,7s3.2,6.7,7,6.7c3.7,0,6.7-2.9,6.7-6.7S212.1,94.4,208.4,94.4z"/>
	<path class="st0" d="M228.1,94.4c-3.7,0-7,3.2-7,7s3.2,6.7,7,6.7c3.7,0,6.7-2.9,6.7-6.7S231.8,94.4,228.1,94.4z"/>
	<path class="st0" d="M247.8,94.4c-3.7,0-7,3.2-7,7s3.2,6.7,7,6.7c3.7,0,6.7-2.9,6.7-6.7S251.6,94.4,247.8,94.4z"/>
	<path class="st0" d="M267.5,94.4c-3.7,0-7,3.2-7,7s3.2,6.7,7,6.7c3.7,0,6.7-2.9,6.7-6.7S271.3,94.4,267.5,94.4z"/>
	<path class="st0" d="M287.3,94.4c-3.7,0-7,3.2-7,7s3.2,6.7,7,6.7s6.7-2.9,6.7-6.7S291,94.4,287.3,94.4z"/>
	<path class="st0" d="M307,94.4c-3.7,0-7,3.2-7,7s3.2,6.7,7,6.7s6.7-2.9,6.7-6.7S310.7,94.4,307,94.4z"/>
	<path class="st0" d="M464.7,94.4c-3.7,0-6.7,3.2-6.7,7s2.9,6.7,6.7,6.7c3.7,0,6.7-2.9,6.7-6.7S468.5,94.4,464.7,94.4z"/>
	<path class="st0" d="M484.4,94.4c-3.7,0-6.7,3.2-6.7,7s2.9,6.7,6.7,6.7c3.7,0,7-2.9,7-6.7S488.2,94.4,484.4,94.4z"/>
	<path class="st0" d="M504.1,94.4c-3.7,0-6.7,3.2-6.7,7s2.9,6.7,6.7,6.7c3.7,0,7-2.9,7-6.7S507.9,94.4,504.1,94.4z"/>
	<path class="st0" d="M523.9,94.4c-3.7,0-6.7,3.2-6.7,7s2.9,6.7,6.7,6.7s7-2.9,7-6.7S527.6,94.4,523.9,94.4z"/>
	<path class="st0" d="M543.6,94.4c-3.7,0-6.7,3.2-6.7,7s2.9,6.7,6.7,6.7c3.7,0,7-2.9,7-6.7S547.3,94.4,543.6,94.4z"/>
	<path class="st0" d="M563.3,94.4c-3.7,0-6.7,3.2-6.7,7s2.9,6.7,6.7,6.7s7-2.9,7-6.7S567,94.4,563.3,94.4z"/>
	<path class="st0" d="M583,94.4c-3.7,0-6.7,3.2-6.7,7s2.9,6.7,6.7,6.7c3.7,0,7-2.9,7-6.7S586.8,94.4,583,94.4z"/>
	<path class="st0" d="M602.7,94.4c-3.7,0-6.7,3.2-6.7,7s2.9,6.7,6.7,6.7c3.7,0,7-2.9,7-6.7S606.5,94.4,602.7,94.4z"/>
	<path class="st0" d="M622.5,94.4c-3.7,0-6.7,3.2-6.7,7s2.9,6.7,6.7,6.7c3.7,0,7-2.9,7-6.7S626.2,94.4,622.5,94.4z"/>
	<path class="st0" d="M642.2,94.4c-3.7,0-6.7,3.2-6.7,7s2.9,6.7,6.7,6.7c3.7,0,7-2.9,7-6.7S645.9,94.4,642.2,94.4z"/>
	<path class="st0" d="M661.9,94.4c-3.7,0-6.7,3.2-6.7,7s2.9,6.7,6.7,6.7s7-2.9,7-6.7S665.6,94.4,661.9,94.4z"/>
	<path class="st0" d="M681.9,94.4c-3.7,0-7,3.2-7,7s3.2,6.7,7,6.7c3.7,0,6.7-2.9,6.7-6.7S685.6,94.4,681.9,94.4z"/>
	<path class="st0" d="M701.6,94.4c-3.7,0-7,3.2-7,7s3.2,6.7,7,6.7c3.7,0,6.7-2.9,6.7-6.7S705.4,94.4,701.6,94.4z"/>
	<path class="st0" d="M721.3,94.4c-3.7,0-7,3.2-7,7s3.2,6.7,7,6.7s6.7-2.9,6.7-6.7S725.1,94.4,721.3,94.4z"/>
	<path class="st0" d="M741,94.4c-3.7,0-7,3.2-7,7s3.2,6.7,7,6.7c3.7,0,6.7-2.9,6.7-6.7S744.8,94.4,741,94.4z"/>
	<path class="st0" d="M760.8,94.4c-3.7,0-7,3.2-7,7s3.2,6.7,7,6.7c3.7,0,6.7-2.9,6.7-6.7S764.5,94.4,760.8,94.4z"/>
	<path class="st0" d="M780.5,94.4c-3.7,0-7,3.2-7,7s3.2,6.7,7,6.7c3.7,0,6.7-2.9,6.7-6.7S784.2,94.4,780.5,94.4z"/>
	<path class="st0" d="M800.2,94.4c-3.7,0-7,3.2-7,7s3.2,6.7,7,6.7c3.7,0,6.7-2.9,6.7-6.7S803.9,94.4,800.2,94.4z"/>
	<path class="st0" d="M859.3,94.4c-3.7,0-7,3.2-7,7s3.2,6.7,7,6.7s6.7-2.9,6.7-6.7S863.1,94.4,859.3,94.4z"/>
	<path class="st0" d="M169,114.1c-3.7,0-7,2.9-7,6.7c0,3.7,3.2,7,7,7c3.7,0,6.7-3.2,6.7-7C175.6,117,172.7,114.1,169,114.1z"/>
	<path class="st0" d="M188.7,114.1c-3.7,0-7,2.9-7,6.7c0,3.7,3.2,7,7,7c3.7,0,6.7-3.2,6.7-7C195.3,117,192.4,114.1,188.7,114.1z"/>
	<path class="st0" d="M208.4,114.1c-3.7,0-7,2.9-7,6.7c0,3.7,3.2,7,7,7c3.7,0,6.7-3.2,6.7-7C215.1,117,212.1,114.1,208.4,114.1z"/>
	<path class="st0" d="M228.1,114.1c-3.7,0-7,2.9-7,6.7c0,3.7,3.2,7,7,7c3.7,0,6.7-3.2,6.7-7C234.8,117,231.8,114.1,228.1,114.1z"/>
	<path class="st0" d="M247.8,114.1c-3.7,0-7,2.9-7,6.7c0,3.7,3.2,7,7,7c3.7,0,6.7-3.2,6.7-7C254.5,117,251.6,114.1,247.8,114.1z"/>
	<path class="st0" d="M267.5,114.1c-3.7,0-7,2.9-7,6.7c0,3.7,3.2,7,7,7c3.7,0,6.7-3.2,6.7-7C274.2,117,271.3,114.1,267.5,114.1z"/>
	<path class="st0" d="M287.3,114.1c-3.7,0-7,2.9-7,6.7c0,3.7,3.2,7,7,7s6.7-3.2,6.7-7C293.9,117,291,114.1,287.3,114.1z"/>
	<path class="st0" d="M464.7,114.1c-3.7,0-6.7,2.9-6.7,6.7c0,3.7,2.9,7,6.7,7c3.7,0,6.7-3.2,6.7-7
		C471.4,117,468.5,114.1,464.7,114.1z"/>
	<path class="st0" d="M504.1,114.1c-3.7,0-6.7,2.9-6.7,6.7c0,3.7,2.9,7,6.7,7c3.7,0,7-3.2,7-7C511.1,117,507.9,114.1,504.1,114.1z"
		/>
	<path class="st0" d="M523.9,114.1c-3.7,0-6.7,2.9-6.7,6.7c0,3.7,2.9,7,6.7,7s7-3.2,7-7C530.8,117,527.6,114.1,523.9,114.1z"/>
	<path class="st0" d="M543.6,114.1c-3.7,0-6.7,2.9-6.7,6.7c0,3.7,2.9,7,6.7,7c3.7,0,7-3.2,7-7C550.5,117,547.3,114.1,543.6,114.1z"
		/>
	<path class="st0" d="M563.3,114.1c-3.7,0-6.7,2.9-6.7,6.7c0,3.7,2.9,7,6.7,7s7-3.2,7-7C570.3,117,567,114.1,563.3,114.1z"/>
	<path class="st0" d="M583,114.1c-3.7,0-6.7,2.9-6.7,6.7c0,3.7,2.9,7,6.7,7c3.7,0,7-3.2,7-7C590,117,586.8,114.1,583,114.1z"/>
	<path class="st0" d="M602.7,114.1c-3.7,0-6.7,2.9-6.7,6.7c0,3.7,2.9,7,6.7,7c3.7,0,7-3.2,7-7C609.7,117,606.5,114.1,602.7,114.1z"
		/>
	<path class="st0" d="M622.5,114.1c-3.7,0-6.7,2.9-6.7,6.7c0,3.7,2.9,7,6.7,7c3.7,0,7-3.2,7-7C629.4,117,626.2,114.1,622.5,114.1z"
		/>
	<path class="st0" d="M642.2,114.1c-3.7,0-6.7,2.9-6.7,6.7c0,3.7,2.9,7,6.7,7c3.7,0,7-3.2,7-7C649.1,117,645.9,114.1,642.2,114.1z"
		/>
	<path class="st0" d="M661.9,114.1c-3.7,0-6.7,2.9-6.7,6.7c0,3.7,2.9,7,6.7,7s7-3.2,7-7C668.8,117,665.6,114.1,661.9,114.1z"/>
	<path class="st0" d="M681.9,114.1c-3.7,0-7,2.9-7,6.7c0,3.7,3.2,7,7,7c3.7,0,6.7-3.2,6.7-7C688.6,117,685.6,114.1,681.9,114.1z"/>
	<path class="st0" d="M701.6,114.1c-3.7,0-7,2.9-7,6.7c0,3.7,3.2,7,7,7c3.7,0,6.7-3.2,6.7-7C708.3,117,705.4,114.1,701.6,114.1z"/>
	<path class="st0" d="M721.3,114.1c-3.7,0-7,2.9-7,6.7c0,3.7,3.2,7,7,7s6.7-3.2,6.7-7C728,117,725.1,114.1,721.3,114.1z"/>
	<path class="st0" d="M741,114.1c-3.7,0-7,2.9-7,6.7c0,3.7,3.2,7,7,7c3.7,0,6.7-3.2,6.7-7C747.7,117,744.8,114.1,741,114.1z"/>
	<path class="st0" d="M760.8,114.1c-3.7,0-7,2.9-7,6.7c0,3.7,3.2,7,7,7c3.7,0,6.7-3.2,6.7-7C767.4,117,764.5,114.1,760.8,114.1z"/>
	<path class="st0" d="M780.5,114.1c-3.7,0-7,2.9-7,6.7c0,3.7,3.2,7,7,7c3.7,0,6.7-3.2,6.7-7C787.1,117,784.2,114.1,780.5,114.1z"/>
	<path class="st0" d="M800.2,114.1c-3.7,0-7,2.9-7,6.7c0,3.7,3.2,7,7,7c3.7,0,6.7-3.2,6.7-7C806.9,117,803.9,114.1,800.2,114.1z"/>
	<path class="st0" d="M169,133.8c-3.7,0-7,2.9-7,6.7c0,3.7,3.2,6.7,7,6.7c3.7,0,6.7-2.9,6.7-6.7C175.6,136.7,172.7,133.8,169,133.8z
		"/>
	<path class="st0" d="M188.7,133.8c-3.7,0-7,2.9-7,6.7c0,3.7,3.2,6.7,7,6.7c3.7,0,6.7-2.9,6.7-6.7
		C195.3,136.7,192.4,133.8,188.7,133.8z"/>
	<path class="st0" d="M208.4,133.8c-3.7,0-7,2.9-7,6.7c0,3.7,3.2,6.7,7,6.7c3.7,0,6.7-2.9,6.7-6.7
		C215.1,136.7,212.1,133.8,208.4,133.8z"/>
	<path class="st0" d="M228.1,133.8c-3.7,0-7,2.9-7,6.7c0,3.7,3.2,6.7,7,6.7c3.7,0,6.7-2.9,6.7-6.7
		C234.8,136.7,231.8,133.8,228.1,133.8z"/>
	<path class="st0" d="M247.8,133.8c-3.7,0-7,2.9-7,6.7c0,3.7,3.2,6.7,7,6.7c3.7,0,6.7-2.9,6.7-6.7
		C254.5,136.7,251.6,133.8,247.8,133.8z"/>
	<path class="st0" d="M267.5,133.8c-3.7,0-7,2.9-7,6.7c0,3.7,3.2,6.7,7,6.7c3.7,0,6.7-2.9,6.7-6.7
		C274.2,136.7,271.3,133.8,267.5,133.8z"/>
	<path class="st0" d="M464.7,133.8c-3.7,0-6.7,2.9-6.7,6.7c0,3.7,2.9,6.7,6.7,6.7c3.7,0,6.7-2.9,6.7-6.7
		C471.4,136.7,468.5,133.8,464.7,133.8z"/>
	<path class="st0" d="M484.4,133.8c-3.7,0-6.7,2.9-6.7,6.7c0,3.7,2.9,6.7,6.7,6.7c3.7,0,7-2.9,7-6.7
		C491.4,136.7,488.2,133.8,484.4,133.8z"/>
	<path class="st0" d="M563.3,133.8c-3.7,0-6.7,2.9-6.7,6.7c0,3.7,2.9,6.7,6.7,6.7s7-2.9,7-6.7C570.3,136.7,567,133.8,563.3,133.8z"
		/>
	<path class="st0" d="M583,133.8c-3.7,0-6.7,2.9-6.7,6.7c0,3.7,2.9,6.7,6.7,6.7c3.7,0,7-2.9,7-6.7C590,136.7,586.8,133.8,583,133.8z
		"/>
	<path class="st0" d="M602.7,133.8c-3.7,0-6.7,2.9-6.7,6.7c0,3.7,2.9,6.7,6.7,6.7c3.7,0,7-2.9,7-6.7
		C609.7,136.7,606.5,133.8,602.7,133.8z"/>
	<path class="st0" d="M622.5,133.8c-3.7,0-6.7,2.9-6.7,6.7c0,3.7,2.9,6.7,6.7,6.7c3.7,0,7-2.9,7-6.7
		C629.4,136.7,626.2,133.8,622.5,133.8z"/>
	<path class="st0" d="M642.2,133.8c-3.7,0-6.7,2.9-6.7,6.7c0,3.7,2.9,6.7,6.7,6.7c3.7,0,7-2.9,7-6.7
		C649.1,136.7,645.9,133.8,642.2,133.8z"/>
	<path class="st0" d="M661.9,133.8c-3.7,0-6.7,2.9-6.7,6.7c0,3.7,2.9,6.7,6.7,6.7s7-2.9,7-6.7C668.8,136.7,665.6,133.8,661.9,133.8z
		"/>
	<path class="st0" d="M681.9,133.8c-3.7,0-7,2.9-7,6.7c0,3.7,3.2,6.7,7,6.7c3.7,0,6.7-2.9,6.7-6.7
		C688.6,136.7,685.6,133.8,681.9,133.8z"/>
	<path class="st0" d="M701.6,133.8c-3.7,0-7,2.9-7,6.7c0,3.7,3.2,6.7,7,6.7c3.7,0,6.7-2.9,6.7-6.7
		C708.3,136.7,705.4,133.8,701.6,133.8z"/>
	<path class="st0" d="M721.3,133.8c-3.7,0-7,2.9-7,6.7c0,3.7,3.2,6.7,7,6.7s6.7-2.9,6.7-6.7C728,136.7,725.1,133.8,721.3,133.8z"/>
	<path class="st0" d="M741,133.8c-3.7,0-7,2.9-7,6.7c0,3.7,3.2,6.7,7,6.7c3.7,0,6.7-2.9,6.7-6.7C747.7,136.7,744.8,133.8,741,133.8z
		"/>
	<path class="st0" d="M760.8,133.8c-3.7,0-7,2.9-7,6.7c0,3.7,3.2,6.7,7,6.7c3.7,0,6.7-2.9,6.7-6.7
		C767.4,136.7,764.5,133.8,760.8,133.8z"/>
	<path class="st0" d="M188.7,153.2c-3.7,0-7,3.2-7,7c0,3.7,3.2,6.7,7,6.7c3.7,0,6.7-2.9,6.7-6.7
		C195.3,156.4,192.4,153.2,188.7,153.2z"/>
	<path class="st0" d="M208.4,153.2c-3.7,0-7,3.2-7,7c0,3.7,3.2,6.7,7,6.7c3.7,0,6.7-2.9,6.7-6.7
		C215.1,156.4,212.1,153.2,208.4,153.2z"/>
	<path class="st0" d="M267.5,153.2c-3.7,0-7,3.2-7,7c0,3.7,3.2,6.7,7,6.7c3.7,0,6.7-2.9,6.7-6.7
		C274.2,156.4,271.3,153.2,267.5,153.2z"/>
	<path class="st0" d="M445,153.2c-3.7,0-6.7,3.2-6.7,7c0,3.7,2.9,6.7,6.7,6.7s6.7-2.9,6.7-6.7C451.7,156.4,448.7,153.2,445,153.2z"
		/>
	<path class="st0" d="M464.7,153.2c-3.7,0-6.7,3.2-6.7,7c0,3.7,2.9,6.7,6.7,6.7c3.7,0,6.7-2.9,6.7-6.7
		C471.4,156.4,468.5,153.2,464.7,153.2z"/>
	<path class="st0" d="M484.4,153.2c-3.7,0-6.7,3.2-6.7,7c0,3.7,2.9,6.7,6.7,6.7c3.7,0,7-2.9,7-6.7
		C491.4,156.4,488.2,153.2,484.4,153.2z"/>
	<path class="st0" d="M504.1,153.2c-3.7,0-6.7,3.2-6.7,7c0,3.7,2.9,6.7,6.7,6.7c3.7,0,7-2.9,7-6.7
		C511.1,156.4,507.9,153.2,504.1,153.2z"/>
	<path class="st0" d="M523.9,153.2c-3.7,0-6.7,3.2-6.7,7c0,3.7,2.9,6.7,6.7,6.7s7-2.9,7-6.7C530.8,156.4,527.6,153.2,523.9,153.2z"
		/>
	<path class="st0" d="M543.6,153.2c-3.7,0-6.7,3.2-6.7,7c0,3.7,2.9,6.7,6.7,6.7c3.7,0,7-2.9,7-6.7
		C550.5,156.4,547.3,153.2,543.6,153.2z"/>
	<path class="st0" d="M563.3,153.2c-3.7,0-6.7,3.2-6.7,7c0,3.7,2.9,6.7,6.7,6.7s7-2.9,7-6.7C570.3,156.4,567,153.2,563.3,153.2z"/>
	<path class="st0" d="M583,153.2c-3.7,0-6.7,3.2-6.7,7c0,3.7,2.9,6.7,6.7,6.7c3.7,0,7-2.9,7-6.7C590,156.4,586.8,153.2,583,153.2z"
		/>
	<path class="st0" d="M602.7,153.2c-3.7,0-6.7,3.2-6.7,7c0,3.7,2.9,6.7,6.7,6.7c3.7,0,7-2.9,7-6.7
		C609.7,156.4,606.5,153.2,602.7,153.2z"/>
	<path class="st0" d="M622.5,153.2c-3.7,0-6.7,3.2-6.7,7c0,3.7,2.9,6.7,6.7,6.7c3.7,0,7-2.9,7-6.7
		C629.4,156.4,626.2,153.2,622.5,153.2z"/>
	<path class="st0" d="M642.2,153.2c-3.7,0-6.7,3.2-6.7,7c0,3.7,2.9,6.7,6.7,6.7c3.7,0,7-2.9,7-6.7
		C649.1,156.4,645.9,153.2,642.2,153.2z"/>
	<path class="st0" d="M661.9,153.2c-3.7,0-6.7,3.2-6.7,7c0,3.7,2.9,6.7,6.7,6.7s7-2.9,7-6.7C668.8,156.4,665.6,153.2,661.9,153.2z"
		/>
	<path class="st0" d="M681.9,153.2c-3.7,0-7,3.2-7,7c0,3.7,3.2,6.7,7,6.7c3.7,0,6.7-2.9,6.7-6.7
		C688.6,156.4,685.6,153.2,681.9,153.2z"/>
	<path class="st0" d="M701.6,153.2c-3.7,0-7,3.2-7,7c0,3.7,3.2,6.7,7,6.7c3.7,0,6.7-2.9,6.7-6.7
		C708.3,156.4,705.4,153.2,701.6,153.2z"/>
	<path class="st0" d="M721.3,153.2c-3.7,0-7,3.2-7,7c0,3.7,3.2,6.7,7,6.7s6.7-2.9,6.7-6.7C728,156.4,725.1,153.2,721.3,153.2z"/>
	<path class="st0" d="M741,153.2c-3.7,0-7,3.2-7,7c0,3.7,3.2,6.7,7,6.7c3.7,0,6.7-2.9,6.7-6.7C747.7,156.4,744.8,153.2,741,153.2z"
		/>
	<path class="st0" d="M760.8,153.2c-3.7,0-7,3.2-7,7c0,3.7,3.2,6.7,7,6.7c3.7,0,6.7-2.9,6.7-6.7
		C767.4,156.4,764.5,153.2,760.8,153.2z"/>
	<path class="st0" d="M188.7,172.9c-3.7,0-7,2.9-7,6.7c0,3.7,3.2,7,7,7c3.7,0,6.7-3.2,6.7-7C195.3,175.9,192.4,172.9,188.7,172.9z"
		/>
	<path class="st0" d="M208.4,172.9c-3.7,0-7,2.9-7,6.7c0,3.7,3.2,7,7,7c3.7,0,6.7-3.2,6.7-7C215.1,175.9,212.1,172.9,208.4,172.9z"
		/>
	<path class="st0" d="M425.3,172.9c-3.7,0-6.7,2.9-6.7,6.7c0,3.7,2.9,7,6.7,7s6.7-3.2,6.7-7C431.9,175.9,429,172.9,425.3,172.9z"/>
	<path class="st0" d="M445,172.9c-3.7,0-6.7,2.9-6.7,6.7c0,3.7,2.9,7,6.7,7s6.7-3.2,6.7-7C451.7,175.9,448.7,172.9,445,172.9z"/>
	<path class="st0" d="M464.7,172.9c-3.7,0-6.7,2.9-6.7,6.7c0,3.7,2.9,7,6.7,7c3.7,0,6.7-3.2,6.7-7
		C471.4,175.9,468.5,172.9,464.7,172.9z"/>
	<path class="st0" d="M484.4,172.9c-3.7,0-6.7,2.9-6.7,6.7c0,3.7,2.9,7,6.7,7c3.7,0,7-3.2,7-7C491.4,175.9,488.2,172.9,484.4,172.9z
		"/>
	<path class="st0" d="M504.1,172.9c-3.7,0-6.7,2.9-6.7,6.7c0,3.7,2.9,7,6.7,7c3.7,0,7-3.2,7-7C511.1,175.9,507.9,172.9,504.1,172.9z
		"/>
	<path class="st0" d="M523.9,172.9c-3.7,0-6.7,2.9-6.7,6.7c0,3.7,2.9,7,6.7,7s7-3.2,7-7C530.8,175.9,527.6,172.9,523.9,172.9z"/>
	<path class="st0" d="M543.6,172.9c-3.7,0-6.7,2.9-6.7,6.7c0,3.7,2.9,7,6.7,7c3.7,0,7-3.2,7-7C550.5,175.9,547.3,172.9,543.6,172.9z
		"/>
	<path class="st0" d="M583,172.9c-3.7,0-6.7,2.9-6.7,6.7c0,3.7,2.9,7,6.7,7c3.7,0,7-3.2,7-7C590,175.9,586.8,172.9,583,172.9z"/>
	<path class="st0" d="M602.7,172.9c-3.7,0-6.7,2.9-6.7,6.7c0,3.7,2.9,7,6.7,7c3.7,0,7-3.2,7-7C609.7,175.9,606.5,172.9,602.7,172.9z
		"/>
	<path class="st0" d="M622.5,172.9c-3.7,0-6.7,2.9-6.7,6.7c0,3.7,2.9,7,6.7,7c3.7,0,7-3.2,7-7C629.4,175.9,626.2,172.9,622.5,172.9z
		"/>
	<path class="st0" d="M661.9,172.9c-3.7,0-6.7,2.9-6.7,6.7c0,3.7,2.9,7,6.7,7s7-3.2,7-7C668.8,175.9,665.6,172.9,661.9,172.9z"/>
	<path class="st0" d="M681.9,172.9c-3.7,0-7,2.9-7,6.7c0,3.7,3.2,7,7,7c3.7,0,6.7-3.2,6.7-7C688.6,175.9,685.6,172.9,681.9,172.9z"
		/>
	<path class="st0" d="M701.6,172.9c-3.7,0-7,2.9-7,6.7c0,3.7,3.2,7,7,7c3.7,0,6.7-3.2,6.7-7C708.3,175.9,705.4,172.9,701.6,172.9z"
		/>
	<path class="st0" d="M721.3,172.9c-3.7,0-7,2.9-7,6.7c0,3.7,3.2,7,7,7s6.7-3.2,6.7-7C728,175.9,725.1,172.9,721.3,172.9z"/>
	<path class="st0" d="M741,172.9c-3.7,0-7,2.9-7,6.7c0,3.7,3.2,7,7,7c3.7,0,6.7-3.2,6.7-7C747.7,175.9,744.8,172.9,741,172.9z"/>
	<path class="st0" d="M760.8,172.9c-3.7,0-7,2.9-7,6.7c0,3.7,3.2,7,7,7c3.7,0,6.7-3.2,6.7-7C767.4,175.9,764.5,172.9,760.8,172.9z"
		/>
	<path class="st0" d="M228.1,192.4c-3.7,0-7,3.2-7,7c0,3.7,3.2,6.7,7,6.7c3.7,0,6.7-2.9,6.7-6.7
		C234.8,195.6,231.8,192.4,228.1,192.4z"/>
	<path class="st0" d="M425.3,192.4c-3.7,0-6.7,3.2-6.7,7c0,3.7,2.9,6.7,6.7,6.7s6.7-2.9,6.7-6.7C431.9,195.6,429,192.4,425.3,192.4z
		"/>
	<path class="st0" d="M445,192.4c-3.7,0-6.7,3.2-6.7,7c0,3.7,2.9,6.7,6.7,6.7s6.7-2.9,6.7-6.7C451.7,195.6,448.7,192.4,445,192.4z"
		/>
	<path class="st0" d="M464.7,192.4c-3.7,0-6.7,3.2-6.7,7c0,3.7,2.9,6.7,6.7,6.7c3.7,0,6.7-2.9,6.7-6.7
		C471.4,195.6,468.5,192.4,464.7,192.4z"/>
	<path class="st0" d="M484.4,192.4c-3.7,0-6.7,3.2-6.7,7c0,3.7,2.9,6.7,6.7,6.7c3.7,0,7-2.9,7-6.7
		C491.4,195.6,488.2,192.4,484.4,192.4z"/>
	<path class="st0" d="M504.1,192.4c-3.7,0-6.7,3.2-6.7,7c0,3.7,2.9,6.7,6.7,6.7c3.7,0,7-2.9,7-6.7
		C511.1,195.6,507.9,192.4,504.1,192.4z"/>
	<path class="st0" d="M523.9,192.4c-3.7,0-6.7,3.2-6.7,7c0,3.7,2.9,6.7,6.7,6.7s7-2.9,7-6.7C530.8,195.6,527.6,192.4,523.9,192.4z"
		/>
	<path class="st0" d="M543.6,192.4c-3.7,0-6.7,3.2-6.7,7c0,3.7,2.9,6.7,6.7,6.7c3.7,0,7-2.9,7-6.7
		C550.5,195.6,547.3,192.4,543.6,192.4z"/>
	<path class="st0" d="M563.3,192.4c-3.7,0-6.7,3.2-6.7,7c0,3.7,2.9,6.7,6.7,6.7s7-2.9,7-6.7C570.3,195.6,567,192.4,563.3,192.4z"/>
	<path class="st0" d="M602.7,192.4c-3.7,0-6.7,3.2-6.7,7c0,3.7,2.9,6.7,6.7,6.7c3.7,0,7-2.9,7-6.7
		C609.7,195.6,606.5,192.4,602.7,192.4z"/>
	<path class="st0" d="M661.9,192.4c-3.7,0-6.7,3.2-6.7,7c0,3.7,2.9,6.7,6.7,6.7s7-2.9,7-6.7C668.8,195.6,665.6,192.4,661.9,192.4z"
		/>
	<path class="st0" d="M681.9,192.4c-3.7,0-7,3.2-7,7c0,3.7,3.2,6.7,7,6.7c3.7,0,6.7-2.9,6.7-6.7
		C688.6,195.6,685.6,192.4,681.9,192.4z"/>
	<path class="st0" d="M701.6,192.4c-3.7,0-7,3.2-7,7c0,3.7,3.2,6.7,7,6.7c3.7,0,6.7-2.9,6.7-6.7
		C708.3,195.6,705.4,192.4,701.6,192.4z"/>
	<path class="st0" d="M741,192.4c-3.7,0-7,3.2-7,7c0,3.7,3.2,6.7,7,6.7c3.7,0,6.7-2.9,6.7-6.7C747.7,195.6,744.8,192.4,741,192.4z"
		/>
	<path class="st0" d="M760.8,192.4c-3.7,0-7,3.2-7,7c0,3.7,3.2,6.7,7,6.7c3.7,0,6.7-2.9,6.7-6.7
		C767.4,195.6,764.5,192.4,760.8,192.4z"/>
	<path class="st0" d="M247.8,212.1c-3.7,0-7,2.9-7,6.7c0,3.7,3.2,7,7,7c3.7,0,6.7-3.2,6.7-7C254.5,215,251.6,212.1,247.8,212.1z"/>
	<path class="st0" d="M267.5,212.1c-3.7,0-7,2.9-7,6.7c0,3.7,3.2,7,7,7c3.7,0,6.7-3.2,6.7-7C274.2,215,271.3,212.1,267.5,212.1z"/>
	<path class="st0" d="M287.3,212.1c-3.7,0-7,2.9-7,6.7c0,3.7,3.2,7,7,7s6.7-3.2,6.7-7C293.9,215,291,212.1,287.3,212.1z"/>
	<path class="st0" d="M307,212.1c-3.7,0-7,2.9-7,6.7c0,3.7,3.2,7,7,7s6.7-3.2,6.7-7C313.6,215,310.7,212.1,307,212.1z"/>
	<path class="st0" d="M445,212.1c-3.7,0-6.7,2.9-6.7,6.7c0,3.7,2.9,7,6.7,7s6.7-3.2,6.7-7C451.7,215,448.7,212.1,445,212.1z"/>
	<path class="st0" d="M464.7,212.1c-3.7,0-6.7,2.9-6.7,6.7c0,3.7,2.9,7,6.7,7c3.7,0,6.7-3.2,6.7-7
		C471.4,215,468.5,212.1,464.7,212.1z"/>
	<path class="st0" d="M484.4,212.1c-3.7,0-6.7,2.9-6.7,6.7c0,3.7,2.9,7,6.7,7c3.7,0,7-3.2,7-7C491.4,215,488.2,212.1,484.4,212.1z"
		/>
	<path class="st0" d="M504.1,212.1c-3.7,0-6.7,2.9-6.7,6.7c0,3.7,2.9,7,6.7,7c3.7,0,7-3.2,7-7C511.1,215,507.9,212.1,504.1,212.1z"
		/>
	<path class="st0" d="M523.9,212.1c-3.7,0-6.7,2.9-6.7,6.7c0,3.7,2.9,7,6.7,7s7-3.2,7-7C530.8,215,527.6,212.1,523.9,212.1z"/>
	<path class="st0" d="M543.6,212.1c-3.7,0-6.7,2.9-6.7,6.7c0,3.7,2.9,7,6.7,7c3.7,0,7-3.2,7-7C550.5,215,547.3,212.1,543.6,212.1z"
		/>
	<path class="st0" d="M563.3,212.1c-3.7,0-6.7,2.9-6.7,6.7c0,3.7,2.9,7,6.7,7s7-3.2,7-7C570.3,215,567,212.1,563.3,212.1z"/>
	<path class="st0" d="M583,212.1c-3.7,0-6.7,2.9-6.7,6.7c0,3.7,2.9,7,6.7,7c3.7,0,7-3.2,7-7C590,215,586.8,212.1,583,212.1z"/>
	<path class="st0" d="M681.9,212.1c-3.7,0-7,2.9-7,6.7c0,3.7,3.2,7,7,7c3.7,0,6.7-3.2,6.7-7C688.6,215,685.6,212.1,681.9,212.1z"/>
	<path class="st0" d="M741,212.1c-3.7,0-7,2.9-7,6.7c0,3.7,3.2,7,7,7c3.7,0,6.7-3.2,6.7-7C747.7,215,744.8,212.1,741,212.1z"/>
	<path class="st0" d="M267.5,231.8c-3.7,0-7,2.9-7,6.7c0,3.7,3.2,6.7,7,6.7c3.7,0,6.7-2.9,6.7-6.7
		C274.2,234.7,271.3,231.8,267.5,231.8z"/>
	<path class="st0" d="M287.3,231.8c-3.7,0-7,2.9-7,6.7c0,3.7,3.2,6.7,7,6.7s6.7-2.9,6.7-6.7C293.9,234.7,291,231.8,287.3,231.8z"/>
	<path class="st0" d="M307,231.8c-3.7,0-7,2.9-7,6.7c0,3.7,3.2,6.7,7,6.7s6.7-2.9,6.7-6.7C313.6,234.7,310.7,231.8,307,231.8z"/>
	<path class="st0" d="M326.7,231.8c-3.7,0-7,2.9-7,6.7c0,3.7,3.2,6.7,7,6.7s6.7-2.9,6.7-6.7C333.4,234.7,330.4,231.8,326.7,231.8z"
		/>
	<path class="st0" d="M504.1,231.8c-3.7,0-6.7,2.9-6.7,6.7c0,3.7,2.9,6.7,6.7,6.7c3.7,0,7-2.9,7-6.7
		C511.1,234.7,507.9,231.8,504.1,231.8z"/>
	<path class="st0" d="M523.9,231.8c-3.7,0-6.7,2.9-6.7,6.7c0,3.7,2.9,6.7,6.7,6.7s7-2.9,7-6.7C530.8,234.7,527.6,231.8,523.9,231.8z
		"/>
	<path class="st0" d="M543.6,231.8c-3.7,0-6.7,2.9-6.7,6.7c0,3.7,2.9,6.7,6.7,6.7c3.7,0,7-2.9,7-6.7
		C550.5,234.7,547.3,231.8,543.6,231.8z"/>
	<path class="st0" d="M563.3,231.8c-3.7,0-6.7,2.9-6.7,6.7c0,3.7,2.9,6.7,6.7,6.7s7-2.9,7-6.7C570.3,234.7,567,231.8,563.3,231.8z"
		/>
	<path class="st0" d="M583,231.8c-3.7,0-6.7,2.9-6.7,6.7c0,3.7,2.9,6.7,6.7,6.7c3.7,0,7-2.9,7-6.7C590,234.7,586.8,231.8,583,231.8z
		"/>
	<path class="st0" d="M741,231.8c-3.7,0-7,2.9-7,6.7c0,3.7,3.2,6.7,7,6.7c3.7,0,6.7-2.9,6.7-6.7C747.7,234.7,744.8,231.8,741,231.8z
		"/>
	<path class="st0" d="M247.8,251.2c-3.7,0-7,3.2-7,7s3.2,6.7,7,6.7c3.7,0,6.7-2.9,6.7-6.7S251.6,251.2,247.8,251.2z"/>
	<path class="st0" d="M267.5,251.2c-3.7,0-7,3.2-7,7s3.2,6.7,7,6.7c3.7,0,6.7-2.9,6.7-6.7S271.3,251.2,267.5,251.2z"/>
	<path class="st0" d="M287.3,251.2c-3.7,0-7,3.2-7,7s3.2,6.7,7,6.7s6.7-2.9,6.7-6.7S291,251.2,287.3,251.2z"/>
	<path class="st0" d="M307,251.2c-3.7,0-7,3.2-7,7s3.2,6.7,7,6.7s6.7-2.9,6.7-6.7S310.7,251.2,307,251.2z"/>
	<path class="st0" d="M326.7,251.2c-3.7,0-7,3.2-7,7s3.2,6.7,7,6.7s6.7-2.9,6.7-6.7S330.4,251.2,326.7,251.2z"/>
	<path class="st0" d="M346.4,251.2c-3.7,0-7,3.2-7,7s3.2,6.7,7,6.7c3.7,0,6.7-2.9,6.7-6.7S350.2,251.2,346.4,251.2z"/>
	<path class="st0" d="M366.1,251.2c-3.7,0-6.7,3.2-6.7,7s2.9,6.7,6.7,6.7c3.7,0,6.7-2.9,6.7-6.7S369.9,251.2,366.1,251.2z"/>
	<path class="st0" d="M504.1,251.2c-3.7,0-6.7,3.2-6.7,7s2.9,6.7,6.7,6.7c3.7,0,7-2.9,7-6.7S507.9,251.2,504.1,251.2z"/>
	<path class="st0" d="M523.9,251.2c-3.7,0-6.7,3.2-6.7,7s2.9,6.7,6.7,6.7s7-2.9,7-6.7S527.6,251.2,523.9,251.2z"/>
	<path class="st0" d="M543.6,251.2c-3.7,0-6.7,3.2-6.7,7s2.9,6.7,6.7,6.7c3.7,0,7-2.9,7-6.7S547.3,251.2,543.6,251.2z"/>
	<path class="st0" d="M563.3,251.2c-3.7,0-6.7,3.2-6.7,7s2.9,6.7,6.7,6.7s7-2.9,7-6.7S567,251.2,563.3,251.2z"/>
	<path class="st0" d="M760.8,251.2c-3.7,0-7,3.2-7,7s3.2,6.7,7,6.7c3.7,0,6.7-2.9,6.7-6.7S764.5,251.2,760.8,251.2z"/>
	<path class="st0" d="M819.9,251.2c-3.7,0-7,3.2-7,7s3.2,6.7,7,6.7s6.7-2.9,6.7-6.7S823.7,251.2,819.9,251.2z"/>
	<path class="st0" d="M267.5,270.9c-3.7,0-7,2.9-7,6.7c0,3.7,3.2,7,7,7c3.7,0,6.7-3.2,6.7-7C274.2,273.9,271.3,270.9,267.5,270.9z"
		/>
	<path class="st0" d="M287.3,270.9c-3.7,0-7,2.9-7,6.7c0,3.7,3.2,7,7,7s6.7-3.2,6.7-7C293.9,273.9,291,270.9,287.3,270.9z"/>
	<path class="st0" d="M307,270.9c-3.7,0-7,2.9-7,6.7c0,3.7,3.2,7,7,7s6.7-3.2,6.7-7C313.6,273.9,310.7,270.9,307,270.9z"/>
	<path class="st0" d="M326.7,270.9c-3.7,0-7,2.9-7,6.7c0,3.7,3.2,7,7,7s6.7-3.2,6.7-7C333.4,273.9,330.4,270.9,326.7,270.9z"/>
	<path class="st0" d="M346.4,270.9c-3.7,0-7,2.9-7,6.7c0,3.7,3.2,7,7,7c3.7,0,6.7-3.2,6.7-7C353.1,273.9,350.2,270.9,346.4,270.9z"
		/>
	<path class="st0" d="M366.1,270.9c-3.7,0-6.7,2.9-6.7,6.7c0,3.7,2.9,7,6.7,7c3.7,0,6.7-3.2,6.7-7
		C372.8,273.9,369.9,270.9,366.1,270.9z"/>
	<path class="st0" d="M504.1,270.9c-3.7,0-6.7,2.9-6.7,6.7c0,3.7,2.9,7,6.7,7c3.7,0,7-3.2,7-7C511.1,273.9,507.9,270.9,504.1,270.9z
		"/>
	<path class="st0" d="M523.9,270.9c-3.7,0-6.7,2.9-6.7,6.7c0,3.7,2.9,7,6.7,7s7-3.2,7-7C530.8,273.9,527.6,270.9,523.9,270.9z"/>
	<path class="st0" d="M543.6,270.9c-3.7,0-6.7,2.9-6.7,6.7c0,3.7,2.9,7,6.7,7c3.7,0,7-3.2,7-7C550.5,273.9,547.3,270.9,543.6,270.9z
		"/>
	<path class="st0" d="M563.3,270.9c-3.7,0-6.7,2.9-6.7,6.7c0,3.7,2.9,7,6.7,7s7-3.2,7-7C570.3,273.9,567,270.9,563.3,270.9z"/>
	<path class="st0" d="M780.5,270.9c-3.7,0-7,2.9-7,6.7c0,3.7,3.2,7,7,7c3.7,0,6.7-3.2,6.7-7C787.1,273.9,784.2,270.9,780.5,270.9z"
		/>
	<path class="st0" d="M287.3,290.4c-3.7,0-7,3.2-7,7c0,3.7,3.2,6.7,7,6.7s6.7-2.9,6.7-6.7C293.9,293.6,291,290.4,287.3,290.4z"/>
	<path class="st0" d="M307,290.4c-3.7,0-7,3.2-7,7c0,3.7,3.2,6.7,7,6.7s6.7-2.9,6.7-6.7C313.6,293.6,310.7,290.4,307,290.4z"/>
	<path class="st0" d="M326.7,290.4c-3.7,0-7,3.2-7,7c0,3.7,3.2,6.7,7,6.7s6.7-2.9,6.7-6.7C333.4,293.6,330.4,290.4,326.7,290.4z"/>
	<path class="st0" d="M346.4,290.4c-3.7,0-7,3.2-7,7c0,3.7,3.2,6.7,7,6.7c3.7,0,6.7-2.9,6.7-6.7
		C353.1,293.6,350.2,290.4,346.4,290.4z"/>
	<path class="st0" d="M366.1,290.4c-3.7,0-6.7,3.2-6.7,7c0,3.7,2.9,6.7,6.7,6.7c3.7,0,6.7-2.9,6.7-6.7
		C372.8,293.6,369.9,290.4,366.1,290.4z"/>
	<path class="st0" d="M504.1,290.4c-3.7,0-6.7,3.2-6.7,7c0,3.7,2.9,6.7,6.7,6.7c3.7,0,7-2.9,7-6.7
		C511.1,293.6,507.9,290.4,504.1,290.4z"/>
	<path class="st0" d="M523.9,290.4c-3.7,0-6.7,3.2-6.7,7c0,3.7,2.9,6.7,6.7,6.7s7-2.9,7-6.7C530.8,293.6,527.6,290.4,523.9,290.4z"
		/>
	<path class="st0" d="M543.6,290.4c-3.7,0-6.7,3.2-6.7,7c0,3.7,2.9,6.7,6.7,6.7c3.7,0,7-2.9,7-6.7
		C550.5,293.6,547.3,290.4,543.6,290.4z"/>
	<path class="st0" d="M563.3,290.4c-3.7,0-6.7,3.2-6.7,7c0,3.7,2.9,6.7,6.7,6.7s7-2.9,7-6.7C570.3,293.6,567,290.4,563.3,290.4z"/>
	<path class="st0" d="M602.7,290.4c-3.7,0-6.7,3.2-6.7,7c0,3.7,2.9,6.7,6.7,6.7c3.7,0,7-2.9,7-6.7
		C609.7,293.6,606.5,290.4,602.7,290.4z"/>
	<path class="st0" d="M741,290.4c-3.7,0-7,3.2-7,7c0,3.7,3.2,6.7,7,6.7c3.7,0,6.7-2.9,6.7-6.7C747.7,293.6,744.8,290.4,741,290.4z"
		/>
	<path class="st0" d="M760.8,290.4c-3.7,0-7,3.2-7,7c0,3.7,3.2,6.7,7,6.7c3.7,0,6.7-2.9,6.7-6.7
		C767.4,293.6,764.5,290.4,760.8,290.4z"/>
	<path class="st0" d="M780.5,290.4c-3.7,0-7,3.2-7,7c0,3.7,3.2,6.7,7,6.7c3.7,0,6.7-2.9,6.7-6.7
		C787.1,293.6,784.2,290.4,780.5,290.4z"/>
	<path class="st0" d="M800.2,290.4c-3.7,0-7,3.2-7,7c0,3.7,3.2,6.7,7,6.7c3.7,0,6.7-2.9,6.7-6.7
		C806.9,293.6,803.9,290.4,800.2,290.4z"/>
	<path class="st0" d="M819.9,290.4c-3.7,0-7,3.2-7,7c0,3.7,3.2,6.7,7,6.7s6.7-2.9,6.7-6.7C826.6,293.6,823.7,290.4,819.9,290.4z"/>
	<path class="st0" d="M287.3,310.1c-3.7,0-7,2.9-7,6.7s3.2,7,7,7s6.7-3.2,6.7-7S291,310.1,287.3,310.1z"/>
	<path class="st0" d="M307,310.1c-3.7,0-7,2.9-7,6.7s3.2,7,7,7s6.7-3.2,6.7-7S310.7,310.1,307,310.1z"/>
	<path class="st0" d="M326.7,310.1c-3.7,0-7,2.9-7,6.7s3.2,7,7,7s6.7-3.2,6.7-7S330.4,310.1,326.7,310.1z"/>
	<path class="st0" d="M346.4,310.1c-3.7,0-7,2.9-7,6.7s3.2,7,7,7c3.7,0,6.7-3.2,6.7-7S350.2,310.1,346.4,310.1z"/>
	<path class="st0" d="M523.9,310.1c-3.7,0-6.7,2.9-6.7,6.7s2.9,7,6.7,7s7-3.2,7-7S527.6,310.1,523.9,310.1z"/>
	<path class="st0" d="M543.6,310.1c-3.7,0-6.7,2.9-6.7,6.7s2.9,7,6.7,7c3.7,0,7-3.2,7-7S547.3,310.1,543.6,310.1z"/>
	<path class="st0" d="M583,310.1c-3.7,0-6.7,2.9-6.7,6.7s2.9,7,6.7,7c3.7,0,7-3.2,7-7S586.8,310.1,583,310.1z"/>
	<path class="st0" d="M741,310.1c-3.7,0-7,2.9-7,6.7s3.2,7,7,7c3.7,0,6.7-3.2,6.7-7S744.8,310.1,741,310.1z"/>
	<path class="st0" d="M760.8,310.1c-3.7,0-7,2.9-7,6.7s3.2,7,7,7c3.7,0,6.7-3.2,6.7-7S764.5,310.1,760.8,310.1z"/>
	<path class="st0" d="M780.5,310.1c-3.7,0-7,2.9-7,6.7s3.2,7,7,7c3.7,0,6.7-3.2,6.7-7S784.2,310.1,780.5,310.1z"/>
	<path class="st0" d="M800.2,310.1c-3.7,0-7,2.9-7,6.7s3.2,7,7,7c3.7,0,6.7-3.2,6.7-7S803.9,310.1,800.2,310.1z"/>
	<path class="st0" d="M819.9,310.1c-3.7,0-7,2.9-7,6.7s3.2,7,7,7s6.7-3.2,6.7-7S823.7,310.1,819.9,310.1z"/>
	<path class="st0" d="M287.3,329.8c-3.7,0-7,2.9-7,6.7c0,3.7,3.2,6.7,7,6.7s6.7-2.9,6.7-6.7C293.9,332.7,291,329.8,287.3,329.8z"/>
	<path class="st0" d="M307,329.8c-3.7,0-7,2.9-7,6.7c0,3.7,3.2,6.7,7,6.7s6.7-2.9,6.7-6.7C313.6,332.7,310.7,329.8,307,329.8z"/>
	<path class="st0" d="M326.7,329.8c-3.7,0-7,2.9-7,6.7c0,3.7,3.2,6.7,7,6.7s6.7-2.9,6.7-6.7C333.4,332.7,330.4,329.8,326.7,329.8z"
		/>
	<path class="st0" d="M523.9,329.8c-3.7,0-6.7,2.9-6.7,6.7c0,3.7,2.9,6.7,6.7,6.7s7-2.9,7-6.7C530.8,332.7,527.6,329.8,523.9,329.8z
		"/>
	<path class="st0" d="M543.6,329.8c-3.7,0-6.7,2.9-6.7,6.7c0,3.7,2.9,6.7,6.7,6.7c3.7,0,7-2.9,7-6.7
		C550.5,332.7,547.3,329.8,543.6,329.8z"/>
	<path class="st0" d="M741,329.8c-3.7,0-7,2.9-7,6.7c0,3.7,3.2,6.7,7,6.7c3.7,0,6.7-2.9,6.7-6.7C747.7,332.7,744.8,329.8,741,329.8z
		"/>
	<path class="st0" d="M760.8,329.8c-3.7,0-7,2.9-7,6.7c0,3.7,3.2,6.7,7,6.7c3.7,0,6.7-2.9,6.7-6.7
		C767.4,332.7,764.5,329.8,760.8,329.8z"/>
	<path class="st0" d="M780.5,329.8c-3.7,0-7,2.9-7,6.7c0,3.7,3.2,6.7,7,6.7c3.7,0,6.7-2.9,6.7-6.7
		C787.1,332.7,784.2,329.8,780.5,329.8z"/>
	<path class="st0" d="M800.2,329.8c-3.7,0-7,2.9-7,6.7c0,3.7,3.2,6.7,7,6.7c3.7,0,6.7-2.9,6.7-6.7
		C806.9,332.7,803.9,329.8,800.2,329.8z"/>
	<path class="st0" d="M819.9,329.8c-3.7,0-7,2.9-7,6.7c0,3.7,3.2,6.7,7,6.7s6.7-2.9,6.7-6.7C826.6,332.7,823.7,329.8,819.9,329.8z"
		/>
	<path class="st0" d="M287.3,349.2c-3.7,0-7,3.2-7,7c0,3.7,3.2,6.7,7,6.7s6.7-2.9,6.7-6.7C293.9,352.4,291,349.2,287.3,349.2z"/>
	<path class="st0" d="M307,349.2c-3.7,0-7,3.2-7,7c0,3.7,3.2,6.7,7,6.7s6.7-2.9,6.7-6.7C313.6,352.4,310.7,349.2,307,349.2z"/>
	<path class="st0" d="M819.9,349.2c-3.7,0-7,3.2-7,7c0,3.7,3.2,6.7,7,6.7s6.7-2.9,6.7-6.7C826.6,352.4,823.7,349.2,819.9,349.2z"/>
	<path class="st0" d="M307,368.9c-3.7,0-7,2.9-7,6.7s3.2,7,7,7s6.7-3.2,6.7-7S310.7,368.9,307,368.9z"/>
</g>
</svg>
