<?xml version="1.0" encoding="utf-8"?>
<!-- Generator: Adobe Illustrator 20.1.0, SVG Export Plug-In . SVG Version: 6.00 Build 0)  -->
<svg version="1.1" id="Camada_1" xmlns="http://www.w3.org/2000/svg" xmlns:xlink="http://www.w3.org/1999/xlink" x="0px" y="0px"
	 viewBox="0 0 64 64.1" style="enable-background:new 0 0 64 64.1;" xml:space="preserve">
<style type="text/css">
	.st0{fill:#FFFFFF;}
</style>
<title>Tourist-Travel Bag</title>
<g>
	<path class="st0" d="M33,9h-6V3c0-0.6-0.4-1-1-1H16c-0.6,0-1,0.4-1,1v6H9c-2.8,0-5,2.2-5,5v39c0,2.8,2.2,5,5,5v3c0,0.6,0.4,1,1,1h4
		c0.6,0,1-0.4,1-1v-3h12v3c0,0.6,0.4,1,1,1h4c0.6,0,1-0.4,1-1v-3c2.8,0,5-2.2,5-5V14C38,11.2,35.8,9,33,9z M28,52c-0.6,0-1,0.4-1,1
		v3H15v-3c0-0.6-0.4-1-1-1H6V15h8c0.6,0,1-0.4,1-1v-3h12v3c0,0.6,0.4,1,1,1h8v37H28z M35.8,13H29v-2h4C34.3,11,35.4,11.8,35.8,13z
		 M25,4v1h-8V4H25z M17,7h8v2h-8V7z M9,11h4v2H6.2C6.6,11.8,7.7,11,9,11z M6.2,54H13v2H9C7.7,56,6.6,55.2,6.2,54z M13,60h-2v-2h2V60
		z M31,60h-2v-2h2V60z M33,56h-4v-2h6.8C35.4,55.2,34.3,56,33,56z"/>
	<path class="st0" d="M23,18h-4c-0.6,0-1,0.4-1,1v30c0,0.6,0.4,1,1,1h4c0.6,0,1-0.4,1-1V19C24,18.4,23.6,18,23,18z M22,48h-2V20h2
		V48z"/>
	<path class="st0" d="M31,18h-4c-0.6,0-1,0.4-1,1v30c0,0.6,0.4,1,1,1h4c0.6,0,1-0.4,1-1V19C32,18.4,31.6,18,31,18z M30,48h-2V20h2
		V48z"/>
	<path class="st0" d="M15,18h-4c-0.6,0-1,0.4-1,1v30c0,0.6,0.4,1,1,1h4c0.6,0,1-0.4,1-1V19C16,18.4,15.6,18,15,18z M14,48h-2V20h2
		V48z"/>
	<path class="st0" d="M58,28.1V14c0-0.6-0.4-1-1-1H45c-0.6,0-1,0.4-1,1v14.1c-2.3,0.5-4,2.5-4,4.9v20c0,2.8,2.2,5,5,5v2
		c0,0.6,0.4,1,1,1h2c0.6,0,1-0.4,1-1v-2h4v2c0,0.6,0.4,1,1,1h2c0.6,0,1-0.4,1-1v-2c2.8,0,5-2.2,5-5V33C62,30.6,60.3,28.6,58,28.1z
		 M53,25h-4v-1h4V25z M49,27h4v1h-4V27z M54,22h-6c-0.6,0-1,0.4-1,1v5h-1V18h10v10h-1v-5C55,22.4,54.6,22,54,22z M56,15v1H46v-1H56z
		 M45,30h12c1.7,0,3,1.3,3,3v4h-5v-1c0-0.6-0.4-1-1-1h-6c-0.6,0-1,0.4-1,1v1h-5v-4C42,31.3,43.3,30,45,30z M54,45h-6
		c-0.6,0-1,0.4-1,1v1h-5v-8h5v1c0,0.6,0.4,1,1,1h6c0.6,0,1-0.4,1-1v-1h5v8h-5v-1C55,45.4,54.6,45,54,45z M53,47v2h-4v-2H53z M49,39
		v-2h4v2H49z M57,56H45c-1.7,0-3-1.3-3-3v-4h5v1c0,0.6,0.4,1,1,1h6c0.6,0,1-0.4,1-1v-1h5v4C60,54.7,58.7,56,57,56z"/>
</g>
</svg>
