<?xml version="1.0" encoding="utf-8"?>
<!-- Generator: Adobe Illustrator 20.1.0, SVG Export Plug-In . SVG Version: 6.00 Build 0)  -->
<svg version="1.1" id="Camada_1" xmlns="http://www.w3.org/2000/svg" xmlns:xlink="http://www.w3.org/1999/xlink" x="0px" y="0px"
	 viewBox="0 0 100 79.7" style="enable-background:new 0 0 100 79.7;" xml:space="preserve">
<style type="text/css">
	.st0{fill:#FFFFFF;}
</style>
<g>
	<path class="st0" d="M64.3,57.7c13.3,0,24-10.8,24-24c0-13.3-10.8-24-24-24c-13.3,0-24,10.8-24,24c0,1.7,0.2,3.5,0.6,5.1L32,40.9
		c-0.4,0.1-0.7,0.5-0.8,0.9c0,0.4,0.2,0.9,0.6,1l9,4v6.6c0,0.4,0.2,0.8,0.6,0.9c0.1,0.1,0.3,0.1,0.4,0.1c0.2,0,0.5-0.1,0.6-0.2
		l3.5-2.8l2.9,2.7c0.2,0.2,0.4,0.3,0.7,0.3c0,0,0,0,0.1,0c0.3,0,0.5-0.1,0.7-0.4l0.5-0.6C54.8,56.3,59.4,57.7,64.3,57.7z M42.3,33.7
		c0-12.1,9.9-22,22-22s22,9.9,22,22s-9.9,22-22,22c-4.4,0-8.6-1.3-12.2-3.7l14.7-17.4c0-0.1,0.1-0.1,0.1-0.2l0.1-0.1
		c0-0.1,0.1-0.2,0.1-0.3l0,0c0-0.1,0-0.2-0.1-0.4l0,0c0,0,0-0.1-0.1-0.1c0-0.1-0.1-0.1-0.1-0.2l0,0l-0.1-0.1l-0.1-0.1
		c-0.1,0-0.1,0-0.2-0.1c-0.1,0-0.1,0-0.2-0.1c-0.1,0-0.1,0-0.2,0s-0.1,0-0.2,0c0,0,0,0-0.1,0l-22.9,5.5
		C42.5,36.8,42.3,35.3,42.3,33.7z M57.8,36.9l-16.1,8.2l-6.3-2.9L57.8,36.9z M42.8,51.3v-2.8l1.6,1.5L42.8,51.3z M49.4,52l-2.7-2.6
		l0,0l-3-2.8l-0.1-0.1L62,37.1L49.4,52z"/>
	<path class="st0" d="M77.4,5.5c-0.5-0.2-1.1,0-1.4,0.5c-0.2,0.5,0,1.1,0.5,1.4c14.5,6.7,20.8,24,14.1,38.5
		c-6.7,14.5-24,20.8-38.5,14.1c-0.5-0.2-1.1,0-1.4,0.5c-0.2,0.5,0,1.1,0.5,1.4c3.9,1.8,8,2.7,12.1,2.9v6.1h-7.6c-0.6,0-1,0.5-1,1
		c0,0.6,0.5,1,1,1H72c0.6,0,1-0.5,1-1c0-0.6-0.5-1-1-1h-6.6v-6.1c11.3-0.4,22.1-7,27.2-17.9C99.7,31.2,92.9,12.7,77.4,5.5z"/>
	<path class="st0" d="M35.7,49.4l-0.9,0.5c-0.3,0.2-0.4,0.6-0.2,0.9c0.1,0.2,0.4,0.3,0.6,0.3c0.1,0,0.2,0,0.3-0.1l0.9-0.5
		c0.3-0.2,0.4-0.6,0.2-0.9C36.4,49.3,36,49.2,35.7,49.4z"/>
	<path class="st0" d="M17.9,43c-0.1-0.4-0.4-0.6-0.8-0.5c-0.7,0.2-1.5,0.4-2.1,0.8c-0.3,0.2-0.4,0.6-0.2,0.9
		c0.1,0.2,0.4,0.3,0.6,0.3c0.1,0,0.2,0,0.3-0.1c0.5-0.3,1.1-0.5,1.7-0.6C17.7,43.8,17.9,43.4,17.9,43z"/>
	<path class="st0" d="M14.7,53.7c-0.4-0.4-0.8-0.8-1.1-1.3c-0.2-0.3-0.6-0.4-0.9-0.2c-0.3,0.2-0.4,0.6-0.2,0.9
		c0.4,0.6,0.8,1.1,1.4,1.6l0.1,0.1c0.1,0.1,0.3,0.1,0.4,0.1c0.2,0,0.4-0.1,0.5-0.3c0.2-0.3,0.2-0.7-0.1-1L14.7,53.7z"/>
	<path class="st0" d="M12.1,49.6L12.1,49.6c0.4,0,0.7-0.3,0.7-0.6c0-0.2,0-0.4,0.1-0.6c0.1-0.4,0.2-0.8,0.3-1.1s0-0.7-0.4-0.9
		c-0.3-0.1-0.7,0-0.9,0.4c-0.2,0.5-0.3,0.9-0.4,1.4c0,0.3-0.1,0.5-0.1,0.8C11.4,49.2,11.7,49.6,12.1,49.6z"/>
	<path class="st0" d="M12.7,58.8c-0.1,0-0.2,0-0.4,0c-0.5,0-1.1,0-1.6-0.1c-0.4,0-0.7,0.2-0.7,0.6s0.2,0.7,0.6,0.7
		c0.6,0.1,1.2,0.1,1.7,0.1c0.1,0,0.3,0,0.4,0c0.4,0,0.7-0.3,0.7-0.7C13.3,59.1,13,58.8,12.7,58.8z"/>
	<path class="st0" d="M18.3,57.5c-0.6,0.3-1.2,0.5-1.8,0.7c-0.4,0.1-0.6,0.5-0.5,0.8s0.4,0.5,0.7,0.5c0.1,0,0.1,0,0.2,0
		c0.7-0.2,1.4-0.5,2-0.8c0.3-0.2,0.5-0.6,0.3-0.9C19.1,57.5,18.7,57.3,18.3,57.5z"/>
	<path class="st0" d="M24.6,51.1h0.1c0.3,0,0.6-0.2,0.7-0.6c0.1-0.4,0.1-0.8,0.1-1.1c0-0.4,0-0.8-0.1-1.1c-0.1-0.4-0.4-0.6-0.8-0.6
		c-0.4,0.1-0.6,0.4-0.6,0.8c0,0.3,0.1,0.6,0.1,0.9c0,0.3,0,0.6-0.1,0.9C24,50.7,24.3,51.1,24.6,51.1z"/>
	<path class="st0" d="M25.8,54.7c-0.7,0.3-1.3,0.5-1.9,0.6c-0.4,0.1-0.6,0.5-0.5,0.8s0.4,0.5,0.7,0.5c0.1,0,0.1,0,0.2,0
		c0.6-0.2,1.3-0.4,2-0.7c0.4-0.1,0.5-0.5,0.4-0.9C26.6,54.7,26.2,54.5,25.8,54.7z"/>
	<path class="st0" d="M31.3,52c-0.6,0.3-1.2,0.7-1.8,1c-0.3,0.2-0.5,0.6-0.3,0.9c0.1,0.2,0.4,0.4,0.6,0.4c0.1,0,0.2,0,0.3-0.1
		c0.6-0.3,1.2-0.7,1.8-1c0.3-0.2,0.4-0.6,0.3-0.9C32,51.9,31.6,51.8,31.3,52z"/>
	<path class="st0" d="M20.1,55.8c-0.7,0-1.3-0.1-1.9-0.3c-0.4-0.1-0.7,0.1-0.8,0.5c-0.1,0.4,0.1,0.7,0.5,0.8
		c0.7,0.2,1.4,0.3,2.2,0.3l0,0c0.4,0,0.7-0.3,0.7-0.7C20.8,56.1,20.5,55.8,20.1,55.8z"/>
	<path class="st0" d="M22.9,45.5c0.2,0,0.4-0.1,0.5-0.2c0.3-0.3,0.3-0.7,0-1c-0.5-0.5-1.2-1-1.9-1.3c-0.3-0.2-0.7,0-0.9,0.3
		c-0.2,0.3,0,0.7,0.3,0.9c0.6,0.3,1.1,0.6,1.5,1C22.5,45.4,22.7,45.5,22.9,45.5z"/>
	<path class="st0" d="M23.7,53.7c-0.3-0.2-0.7-0.1-0.9,0.2c-0.3,0.5-0.8,1-1.2,1.5c-0.3,0.3-0.3,0.7,0,1c0.1,0.1,0.3,0.2,0.5,0.2
		s0.3-0.1,0.5-0.2c0.5-0.5,1-1.1,1.4-1.7C24.1,54.3,24,53.9,23.7,53.7z"/>
	<path class="st0" d="M6.9,57.8c-0.3-0.1-0.6-0.3-0.9-0.4c-0.3-0.2-0.7,0-0.9,0.3c-0.2,0.3,0,0.7,0.3,0.9c0.3,0.2,0.6,0.3,1,0.4
		c0.1,0,0.2,0,0.3,0c0.3,0,0.5-0.2,0.6-0.4C7.4,58.3,7.2,57.9,6.9,57.8z"/>
</g>
</svg>
